<?xml version="1.0" encoding="UTF-8"?>
<svg id="Camada_1" xmlns="http://www.w3.org/2000/svg" version="1.1" viewBox="0 0 374 483">
  <!-- Generator: Adobe Illustrator 30.0.0, SVG Export Plug-In . SVG Version: 2.1.1 Build 123)  -->
  <defs>
    <style>
      .st0 {
        fill: #f7f3ec;
      }

      .st1 {
        fill: none;
        stroke: #000;
        stroke-width: .5px;
      }

      .st2 {
        fill: #130d1a;
        fill-rule: evenodd;
      }
    </style>
  </defs>
  <rect class="st0" y="0" width="373.7" height="482.2" rx="19" ry="19"/>
  <path class="st2" d="M355.1,475.2l.3-2.5c.7-5,4.8-8.9,10.2-9.8-5.4-.8-9.5-4.8-10.2-9.8l-.3-2.5-.3,2.5c-.7,5-4.8,8.9-10.2,9.8,5.4.8,9.5,4.8,10.2,9.8l.3,2.5ZM355.9,472.7l-.6,4.1h-.4l-.6-4.1c-.6-4.8-4.6-8.6-9.8-9.4l-1.3-.2v-.4l1.3-.2c5.2-.8,9.2-4.6,9.8-9.4l.6-4.1h.4l.6,4.1c.6,4.8,4.6,8.6,9.8,9.4l1.3.2v.4l-1.3.2c-5.2.8-9.2,4.6-9.8,9.4Z"/>
  <path class="st2" d="M18.9,475.2l.3-2.5c.7-5,4.8-8.9,10.2-9.8-5.4-.8-9.5-4.8-10.2-9.8l-.3-2.5-.3,2.5c-.7,5-4.8,8.9-10.2,9.8,5.4.8,9.5,4.8,10.2,9.8l.3,2.5ZM19.6,472.7l-.6,4.1h-.4l-.6-4.1c-.7-4.8-4.6-8.6-9.8-9.4l-1.3-.2v-.4l1.3-.2c5.2-.8,9.2-4.6,9.8-9.4l.6-4.1h.4l.6,4.1c.7,4.8,4.6,8.6,9.8,9.4l1.3.2v.4l-1.3.2c-5.2.8-9.2,4.6-9.8,9.4Z"/>
  <path class="st2" d="M354.8,438.8l.3-1.6c.4-2.1,2-3.7,4.2-4.1l1.6-.3-1.6-.3c-2.1-.3-3.8-2-4.2-4.1l-.3-1.6-.3,1.6c-.4,2.1-2,3.7-4.2,4.1l-1.6.3,1.6.3c2.1.3,3.8,2,4.2,4.1l.3,1.6ZM355.3,437.3l-.4,2.3h-.2l-.4-2.3c-.3-2-1.9-3.5-4-3.9l-2.3-.4v-.2l2.3-.4c2-.3,3.6-1.9,4-3.9l.4-2.3h.2l.4,2.3c.3,2,1.9,3.5,4,3.9l2.3.4v.2l-2.3.4c-2,.3-3.6,1.9-4,3.9Z"/>
  <path class="st2" d="M330.9,468.9l.3-1.6c.4-2.1,2-3.7,4.2-4.1l1.6-.3-1.6-.3c-2.1-.3-3.8-2-4.2-4.1l-.3-1.6-.3,1.6c-.4,2.1-2,3.7-4.2,4.1l-1.6.3,1.6.3c2.1.3,3.8,2,4.2,4.1l.3,1.6ZM331.4,467.3l-.4,2.3h-.2l-.4-2.3c-.3-2-1.9-3.5-4-3.9l-2.3-.4v-.2l2.3-.4c2-.3,3.6-1.9,4-3.9l.4-2.3h.2l.4,2.3c.3,2,1.9,3.5,4,3.9l2.3.4v.2l-2.3.4c-2,.3-3.6,1.9-4,3.9Z"/>
  <path class="st2" d="M42.9,468.9l.3-1.6c.4-2.1,2-3.7,4.2-4.1l1.6-.3-1.6-.3c-2.1-.3-3.8-2-4.2-4.1l-.3-1.6-.3,1.6c-.4,2.1-2,3.7-4.2,4.1l-1.6.3,1.6.3c2.1.3,3.8,2,4.2,4.1l.3,1.6ZM43.4,467.3l-.4,2.3h-.2l-.4-2.3c-.3-2-1.9-3.5-4-3.9l-2.3-.4v-.2l2.3-.4c2-.3,3.6-1.9,4-3.9l.4-2.3h.2l.4,2.3c.3,2,1.9,3.5,4,3.9l2.3.4v.2l-2.3.4c-2,.3-3.6,1.9-4,3.9Z"/>
  <path class="st2" d="M18.8,438.8l.3-1.6c.4-2.1,2-3.7,4.2-4.1l1.6-.3-1.6-.3c-2.1-.3-3.8-2-4.2-4.1l-.3-1.6-.3,1.6c-.4,2.1-2,3.7-4.2,4.1l-1.6.3,1.6.3c2.1.3,3.8,2,4.2,4.1l.3,1.6ZM19.3,437.3l-.4,2.3h-.2l-.4-2.3c-.3-2-1.9-3.5-4-3.9l-2.3-.4v-.2l2.3-.4c2-.3,3.6-1.9,4-3.9l.4-2.3h.2l.4,2.3c.3,2,1.9,3.5,4,3.9l2.3.4v.2l-2.3.4c-2,.3-3.6,1.9-4,3.9Z"/>
  <path class="st2" d="M18.9,6.8l-.3,2.5c-.7,5-4.8,8.9-10.2,9.8,5.4.8,9.5,4.8,10.2,9.8l.3,2.5.3-2.5c.7-5,4.8-8.9,10.2-9.8-5.4-.8-9.5-4.8-10.2-9.8l-.3-2.5ZM18.1,9.3l.6-4.1h.4l.6,4.1c.7,4.8,4.6,8.6,9.8,9.4l1.3.2v.4l-1.3.2c-5.2.8-9.2,4.6-9.8,9.4l-.6,4.1h-.4l-.6-4.1c-.7-4.8-4.6-8.6-9.8-9.4l-1.3-.2v-.4l1.3-.2c5.2-.8,9.2-4.6,9.8-9.4Z"/>
  <path class="st2" d="M354.9,6.8l-.3,2.5c-.7,5-4.8,8.9-10.2,9.8,5.4.8,9.5,4.8,10.2,9.8l.3,2.5.3-2.5c.7-5,4.8-8.9,10.2-9.8-5.4-.8-9.5-4.8-10.2-9.8l-.3-2.5ZM354.1,9.3l.6-4.1h.4l.6,4.1c.6,4.8,4.6,8.6,9.8,9.4l1.3.2v.4l-1.3.2c-5.2.8-9.2,4.6-9.8,9.4l-.6,4.1h-.4l-.6-4.1c-.6-4.8-4.6-8.6-9.8-9.4l-1.3-.2v-.4l1.3-.2c5.2-.8,9.2-4.6,9.8-9.4Z"/>
  <path class="st1" d="M19,62.1v358.1"/>
  <path class="st1" d="M355,62.1v358.1"/>
  <path class="st1" d="M314,18.6H59"/>
  <path class="st1" d="M314,463.6H59"/>
  <path class="st2" d="M18.8,42.1l-.3,1.6c-.4,2.1-2,3.7-4.2,4.1l-1.6.3,1.6.3c2.1.3,3.8,2,4.2,4.1l.3,1.6.3-1.6c.4-2.1,2-3.7,4.2-4.1l1.6-.3-1.6-.3c-2.1-.3-3.8-2-4.2-4.1l-.3-1.6ZM18.3,43.6l.4-2.3h.2l.4,2.3c.3,2,1.9,3.5,4,3.9l2.3.4v.2l-2.3.4c-2,.3-3.6,1.9-4,3.9l-.4,2.3h-.2l-.4-2.3c-.3-2-1.9-3.5-4-3.9l-2.3-.4v-.2l2.3-.4c2-.3,3.6-1.9,4-3.9Z"/>
  <path class="st2" d="M42.8,13.2l-.3,1.6c-.4,2.1-2,3.7-4.2,4.1l-1.6.3,1.6.3c2.1.3,3.8,2,4.2,4.1l.3,1.6.3-1.6c.4-2.1,2-3.7,4.2-4.1l1.6-.3-1.6-.3c-2.1-.3-3.8-2-4.2-4.1l-.3-1.6ZM42.3,14.7l.4-2.3h.2l.4,2.3c.3,2,1.9,3.5,4,3.9l2.3.4v.2l-2.3.4c-2,.3-3.6,1.9-4,3.9l-.4,2.3h-.2l-.4-2.3c-.3-2-1.9-3.5-4-3.9l-2.3-.4v-.2l2.3-.4c2-.3,3.6-1.9,4-3.9Z"/>
  <path class="st2" d="M330.8,13.2l-.3,1.6c-.4,2.1-2,3.7-4.2,4.1l-1.6.3,1.6.3c2.1.3,3.8,2,4.2,4.1l.3,1.6.3-1.6c.4-2.1,2-3.7,4.2-4.1l1.6-.3-1.6-.3c-2.1-.3-3.8-2-4.2-4.1l-.3-1.6ZM330.3,14.7l.4-2.3h.2l.4,2.3c.3,2,1.9,3.5,4,3.9l2.3.4v.2l-2.3.4c-2,.3-3.6,1.9-4,3.9l-.4,2.3h-.2l-.4-2.3c-.3-2-1.9-3.5-4-3.9l-2.3-.4v-.2l2.3-.4c2-.3,3.6-1.9,4-3.9Z"/>
  <path class="st2" d="M354.8,42.1l-.3,1.6c-.4,2.1-2,3.7-4.2,4.1l-1.6.3,1.6.3c2.1.3,3.8,2,4.2,4.1l.3,1.6.3-1.6c.4-2.1,2-3.7,4.2-4.1l1.6-.3-1.6-.3c-2.1-.3-3.8-2-4.2-4.1l-.3-1.6ZM354.3,43.6l.4-2.3h.2l.4,2.3c.3,2,1.9,3.5,4,3.9l2.3.4v.2l-2.3.4c-2,.3-3.6,1.9-4,3.9l-.4,2.3h-.2l-.4-2.3c-.3-2-1.9-3.5-4-3.9l-2.3-.4v-.2l2.3-.4c2-.3,3.6-1.9,4-3.9Z"/>
</svg>