<svg width="189" height="221" viewBox="0 0 189 221" fill="none" xmlns="http://www.w3.org/2000/svg">
<path d="M108.578 84.7261C128.412 82.2261 171.878 95.0261 187.078 166.226H170.078C171.745 148.559 166.178 118.526 130.578 139.726C134.912 148.559 146.478 166.226 158.078 166.226C158.745 183.059 161.078 217.226 165.078 219.226C170.078 221.726 118.578 199.726 108.578 186.726C100.412 189.726 79.7783 196.226 62.5783 198.226C66.8635 183.984 71.9338 150.1 57.9338 128.5M142.578 46.2261C130.912 48.2261 107.678 58.7261 108.078 84.7261C92.745 85.7261 61.2783 95.9261 58.0783 128.726C52.745 123.059 38.6783 114.426 25.0783 125.226M160.078 50.2262L176.078 16.7262C147.412 -1.10717 74.6784 -17.9738 13.0784 57.2262C4.43384 74 -3.62164 96.6261 5.57836 136.226C13.245 151.226 23.4784 186.226 3.07837 206.226C9.9117 204.226 24.3784 196.226 27.5784 180.226C30.7784 164.226 26.0784 146.726 24.0784 110.726C27.5784 77.2261 77.0784 20.8261 159.078 51.2261" stroke="#130D1A" stroke-width="3" stroke-linecap="round"/>
<path d="M108.578 84.7261C128.412 82.2261 171.878 95.0261 187.078 166.226H170.078C171.745 148.559 166.178 118.526 130.578 139.726C134.912 148.559 146.478 166.226 158.078 166.226C158.745 183.059 161.078 217.226 165.078 219.226C170.078 221.726 118.578 199.726 108.578 186.726C100.412 189.726 79.7783 196.226 62.5783 198.226C66.8635 183.984 71.9338 150.1 57.9338 128.5M142.578 46.2261C130.912 48.2261 107.678 58.7261 108.078 84.7261C92.745 85.7261 61.2783 95.9261 58.0783 128.726C52.745 123.059 38.6783 114.426 25.0783 125.226M160.078 50.2262L176.078 16.7262C147.412 -1.10717 74.6784 -17.9738 13.0784 57.2262C4.43384 74 -3.62164 96.6261 5.57836 136.226C13.245 151.226 23.4784 186.226 3.07837 206.226C9.9117 204.226 24.3784 196.226 27.5784 180.226C30.7784 164.226 26.0784 146.726 24.0784 110.726C27.5784 77.2261 77.0784 20.8261 159.078 51.2261" stroke="black" stroke-opacity="0.2" stroke-width="3" stroke-linecap="round"/>
</svg>
