<svg width="191" height="222" viewBox="0 0 191 222" fill="none" xmlns="http://www.w3.org/2000/svg">
<path d="M109.078 85.2261C128.912 82.7261 172.378 95.5261 187.578 166.726H170.578C172.245 149.059 166.678 119.026 131.078 140.226C135.412 149.059 146.978 166.726 158.578 166.726C159.245 183.559 161.578 217.726 165.578 219.726C170.578 222.226 119.078 200.226 109.078 187.226C100.912 190.226 80.2783 196.726 63.0783 198.726C67.3635 184.484 72.4338 150.6 58.4338 129M143.078 46.7261C131.412 48.7261 108.178 59.2261 108.578 85.2261C93.245 86.2261 61.7783 96.4261 58.5783 129.226C53.245 123.559 39.1783 114.926 25.5783 125.726M160.578 50.7262L176.578 17.2262C147.912 -0.607169 75.1784 -17.4738 13.5784 57.7262C4.93384 74.5 -3.12164 97.1261 6.07836 136.726C13.745 151.726 23.9784 186.726 3.57837 206.726C10.4117 204.726 24.8784 196.726 28.0784 180.726C31.2784 164.726 26.5784 147.226 24.5784 111.226C28.0784 77.7261 77.5784 21.3261 159.578 51.7261" stroke="#130D1A" stroke-width="4" stroke-linecap="round"/>
<path d="M109.078 85.2261C128.912 82.7261 172.378 95.5261 187.578 166.726H170.578C172.245 149.059 166.678 119.026 131.078 140.226C135.412 149.059 146.978 166.726 158.578 166.726C159.245 183.559 161.578 217.726 165.578 219.726C170.578 222.226 119.078 200.226 109.078 187.226C100.912 190.226 80.2783 196.726 63.0783 198.726C67.3635 184.484 72.4338 150.6 58.4338 129M143.078 46.7261C131.412 48.7261 108.178 59.2261 108.578 85.2261C93.245 86.2261 61.7783 96.4261 58.5783 129.226C53.245 123.559 39.1783 114.926 25.5783 125.726M160.578 50.7262L176.578 17.2262C147.912 -0.607169 75.1784 -17.4738 13.5784 57.7262C4.93384 74.5 -3.12164 97.1261 6.07836 136.726C13.745 151.726 23.9784 186.726 3.57837 206.726C10.4117 204.726 24.8784 196.726 28.0784 180.726C31.2784 164.726 26.5784 147.226 24.5784 111.226C28.0784 77.7261 77.5784 21.3261 159.578 51.7261" stroke="black" stroke-opacity="0.2" stroke-width="4" stroke-linecap="round"/>
</svg>
