<svg width="30" height="33" viewBox="0 0 30 33" fill="none" xmlns="http://www.w3.org/2000/svg">
<path fill-rule="evenodd" clip-rule="evenodd" d="M14.9999 2.73399L14.4579 6.37694C13.7308 11.2643 10.2709 15.0949 5.85646 15.8999L2.56605 16.5L5.85646 17.1C10.2709 17.9051 13.7308 21.7357 14.4579 26.6231L14.9999 30.266L15.5418 26.6231C16.269 21.7357 19.7289 17.9051 24.1433 17.1L27.4337 16.5L24.1433 15.8999C19.7289 15.0949 16.269 11.2643 15.5418 6.37694L14.9999 2.73399ZM13.9556 6.28533L14.7487 0.954193L15.251 0.954193L16.0442 6.28533C16.7358 10.9343 20.0269 14.578 24.226 15.3438L29.0412 16.2219V16.7781L24.226 17.6562C20.0269 18.4219 16.7358 22.0657 16.0442 26.7147L15.251 32.0458H14.7487L13.9556 26.7147C13.2639 22.0657 9.97279 18.4219 5.77372 17.6562L0.958496 16.7781L0.958496 16.2219L5.77372 15.3438C9.97279 14.578 13.2639 10.9343 13.9556 6.28533Z" fill="#130D1A"/>
</svg>
