<svg width="50" height="51" viewBox="0 0 50 51" fill="none" xmlns="http://www.w3.org/2000/svg">
<path fill-rule="evenodd" clip-rule="evenodd" d="M25.0488 3.0174L24.3376 7.64127C22.9433 16.7061 14.3805 23.9459 3.29231 25.4376C14.3805 26.9293 22.9433 34.1691 24.3376 43.2339L25.0488 47.8578L25.7601 43.2339C27.1544 34.1691 35.7171 26.9293 46.8054 25.4376C35.7172 23.9459 27.1544 16.7061 25.7601 7.64127L25.0488 3.0174ZM23.4537 7.55147L24.6069 0.0543213L25.4908 0.0543213L26.644 7.55147C27.9902 16.3035 36.2617 23.2925 46.9704 24.726L49.6182 25.0804L49.6182 25.7948L46.9703 26.1492C36.2617 27.5827 27.9902 34.5717 26.644 43.3237L25.4908 50.8209H24.6069L23.4537 43.3237C22.1075 34.5717 13.8359 27.5827 3.12731 26.1492L0.479493 25.7948L0.479492 25.0804L3.12731 24.726C13.8359 23.2925 22.1075 16.3035 23.4537 7.55147Z" fill="#130D1A"/>
</svg>
